<?xml version="1.0" encoding="UTF-8" standalone="no"?>
<!DOCTYPE svg PUBLIC "-//W3C//DTD SVG 1.1//EN" "http://www.w3.org/Graphics/SVG/1.1/DTD/svg11.dtd">
<svg width="100%" height="100%" viewBox="0 0 700 730" version="1.1" xmlns="http://www.w3.org/2000/svg" xmlns:xlink="http://www.w3.org/1999/xlink" xml:space="preserve" xmlns:serif="http://www.serif.com/" style="fill-rule:evenodd;clip-rule:evenodd;stroke-linejoin:round;stroke-miterlimit:2;">
    <g transform="matrix(1,0,0,1,-5189,772.11)">
        <g transform="matrix(1,0,0,1,165,-1041.11)">
            <g id="logo" transform="matrix(1,0,0,1,0,13.1104)">
                <path d="M5193.21,912.496L5193.21,505.063L5556.71,505.063L5556.71,806.845L5488.52,806.845C5426.75,806.845 5376.71,856.68 5376.71,918.122L5376.71,985.89L5267.05,985.89C5226.28,985.89 5193.21,953.045 5193.21,912.496ZM5518.96,763.951L5233.96,763.951C5228.99,763.951 5224.96,767.974 5224.96,772.93C5224.96,777.885 5228.99,781.908 5233.96,781.908L5518.96,781.908C5523.92,781.908 5527.96,777.885 5527.96,772.93C5527.96,767.974 5523.92,763.951 5518.96,763.951ZM5233.96,933.499L5334.96,933.499C5339.92,933.499 5343.96,929.476 5343.96,924.521C5343.96,919.565 5339.92,915.542 5334.96,915.542L5233.96,915.542C5228.99,915.542 5224.96,919.565 5224.96,924.521C5224.96,929.476 5228.99,933.499 5233.96,933.499ZM5399.96,706.113L5518.96,706.113C5523.92,706.113 5527.96,702.09 5527.96,697.134C5527.96,692.179 5523.92,688.156 5518.96,688.156L5399.96,688.156C5394.99,688.156 5390.96,692.179 5390.96,697.134C5390.96,702.09 5394.99,706.113 5399.96,706.113ZM5399.96,630.317L5518.96,630.317C5523.92,630.317 5527.96,626.294 5527.96,621.339C5527.96,616.384 5523.92,612.36 5518.96,612.36L5399.96,612.36C5394.99,612.36 5390.96,616.384 5390.96,621.339C5390.96,626.294 5394.99,630.317 5399.96,630.317ZM5282.23,604.025L5342.15,588.644L5342.15,634.963C5338.81,633.579 5335.15,632.816 5331.32,632.816C5315.51,632.816 5302.68,645.787 5302.68,661.764C5302.68,677.741 5315.51,690.712 5331.32,690.712C5347.12,690.712 5359.96,677.741 5359.96,661.764L5359.96,545.589C5359.96,543.917 5359.51,542.352 5358.72,541.01C5358.16,540.049 5357.41,539.19 5356.52,538.487C5356.21,538.245 5355.89,538.026 5355.56,537.83C5354.24,537.043 5352.7,536.591 5351.06,536.591L5351.02,536.591C5350.21,536.595 5349.43,536.706 5348.69,536.912L5271.3,556.777C5270.62,556.938 5269.97,557.179 5269.35,557.489C5267.74,558.304 5266.43,559.59 5265.56,561.15C5264.84,562.449 5264.43,563.946 5264.43,565.539L5264.43,654.913C5261.09,653.529 5257.43,652.766 5253.6,652.766C5237.79,652.766 5224.96,665.738 5224.96,681.714C5224.96,697.691 5237.79,710.662 5253.6,710.662C5269.4,710.662 5282.23,697.691 5282.23,681.714L5282.23,604.025ZM5334.96,839.747L5233.96,839.747C5228.99,839.747 5224.96,843.77 5224.96,848.725C5224.96,853.247 5228.31,856.992 5232.68,857.613C5233.09,857.673 5233.52,857.704 5233.96,857.704L5334.96,857.704C5339.92,857.704 5343.96,853.681 5343.96,848.725C5343.96,843.77 5339.92,839.747 5334.96,839.747ZM5399.96,554.522L5518.96,554.522C5523.92,554.522 5527.96,550.499 5527.96,545.543C5527.96,540.588 5523.92,536.565 5518.96,536.565L5399.96,536.565C5394.99,536.565 5390.96,540.588 5390.96,545.543C5390.96,550.499 5394.99,554.522 5399.96,554.522ZM5413.21,960.233L5413.21,918.122C5413.21,876.761 5446.94,843.258 5488.52,843.258L5530.81,843.258L5413.21,960.233Z" style="fill:rgb(14,26,240);"/>
            </g>
            <g id="logo1" serif:id="logo" transform="matrix(1,0,0,1,0,13.1104)">
                <path d="M5156.71,505.113L5156.71,848.62C5106.17,827.602 5070.62,777.937 5070.62,720.079C5070.62,703.421 5073.56,687.442 5078.97,672.631C5045.13,640.882 5024,595.88 5024,546.008C5024,459.568 5087.48,387.76 5170.56,374.229C5210.59,303.616 5286.71,255.89 5373.95,255.89C5461.18,255.89 5537.3,303.608 5577.33,374.211C5660.47,387.695 5724,459.529 5724,546.008C5724,626.892 5668.42,694.966 5593.21,714.467L5593.21,505.113L5614.96,505.113C5625.06,505.113 5633.26,496.933 5633.26,486.857C5633.26,476.781 5625.06,468.601 5614.96,468.601L5134.96,468.601C5124.86,468.601 5116.66,476.781 5116.66,486.857C5116.66,496.933 5124.86,505.113 5134.96,505.113L5156.71,505.113Z" style="fill:rgb(6,10,97);"/>
            </g>
        </g>
    </g>
</svg>
